# xmcd
#
# Track frame offsets: 
#        150
#        28649
#        43114
#        65001
#        85925
#        108152
#        127038
#        144566
#        167614
#        182944
#        198651
#        219705
#        235685
#        253460
#
# Disc length: 3681 seconds
#
# Revision: 0
# Processed by: cddbd v1.5.2PL0 Copyright (c) Steve Scherf et al.
# Submitted via: ExactAudioCopy v0.99pb3
#
DISCID=d50e5f0e
DTITLE=Cassidy - B.A.R.S. The Barry Adrian Reese Story
DYEAR=2007
DGENRE=Rap
TTITLE0=Intro (B.A.R.S vs. Da Hustla)
TTITLE1=My Drink N' My 2 Step [Main Version]
TTITLE2=Where My N****s At
TTITLE3=I Will Never Tell (Uh Uh)
TTITLE4=I Pray
TTITLE5=Innocent
TTITLE6=Cash Rulez
TTITLE7=Leanin' On The Lord [Main]
TTITLE8=Damn I Miss The Game
TTITLE9=Done 4 Me
TTITLE10=I Get My Paper
TTITLE11=Take A Trip
TTITLE12=Cash Rulez
TTITLE13=All By Myself
EXTD=
EXTT0=
EXTT1=
EXTT2=
EXTT3=
EXTT4=
EXTT5=
EXTT6=
EXTT7=
EXTT8=
EXTT9=
EXTT10=
EXTT11=
EXTT12=
EXTT13=
PLAYORDER=
